<?xml version="1.0" encoding="utf-8"?>
<!-- Generator: Adobe Illustrator 23.0.1, SVG Export Plug-In . SVG Version: 6.00 Build 0)  -->
<svg version="1.1" id="Layer_1" xmlns="http://www.w3.org/2000/svg" xmlns:xlink="http://www.w3.org/1999/xlink" x="0px" y="0px"
	 viewBox="0 0 56 49" style="enable-background:new 0 0 56 49;" xml:space="preserve">
<style type="text/css">
	.st0{fill:#FFFFFF;}
</style>
<path class="st0" d="M46.3,30.3V45c0,1.4-1,2.5-2.2,2.5H33.5c-0.6,0-1.1-0.6-1.1-1.2V34.7c0-0.7-0.5-1.2-1.1-1.2h-6.6
	c-0.6,0-1.1,0.6-1.1,1.2v11.5c0,0.7-0.5,1.2-1.1,1.2H11.9c-1.2,0-2.2-1.1-2.2-2.5V30.3c0-0.4,0.1-0.7,0.4-1l17.2-15.9
	c0.4-0.4,1-0.4,1.4,0l17.2,15.9C46.2,29.6,46.3,29.9,46.3,30.3L46.3,30.3z M54,24.1L46.3,17V2.8c0-0.7-0.5-1.2-1.1-1.2h-5.1
	c-0.6,0-1.1,0.6-1.1,1.2v7.4l-8.2-7.6c-1.6-1.5-4-1.5-5.6,0L2,24.1c-0.5,0.4-0.5,1.2-0.1,1.7L4.2,29c0.4,0.5,1.1,0.6,1.5,0.2
	L27.3,9.3c0.4-0.4,1-0.4,1.4,0l21.5,19.9c0.5,0.4,1.2,0.4,1.5-0.2l2.3-3.2C54.5,25.3,54.4,24.5,54,24.1z"/>
</svg>
