<?xml version="1.0" encoding="utf-8"?>
<!-- Generator: Adobe Illustrator 23.0.1, SVG Export Plug-In . SVG Version: 6.00 Build 0)  -->
<svg version="1.1" id="Layer_1" xmlns="http://www.w3.org/2000/svg" xmlns:xlink="http://www.w3.org/1999/xlink" x="0px" y="0px"
	 viewBox="0 0 26 26" style="enable-background:new 0 0 26 26;" xml:space="preserve">
<style type="text/css">
	.st0{fill:#007791;}
</style>
<path class="st0" d="M25,22l-4.8-4.8c-0.2-0.2-0.5-0.3-0.8-0.3h-0.8c1.3-1.7,2.1-3.8,2.1-6.2c0-5.5-4.5-10-10-10s-10,4.5-10,10
	s4.5,10,10,10c2.3,0,4.5-0.8,6.2-2.1v0.8c0,0.3,0.1,0.6,0.3,0.8L22,25c0.5,0.5,1.2,0.5,1.6,0l1.4-1.4C25.4,23.2,25.4,22.4,25,22z
	 M10.7,16.9c-3.4,0-6.2-2.8-6.2-6.2c0-3.4,2.8-6.2,6.2-6.2c3.4,0,6.2,2.8,6.2,6.2C16.9,14.1,14.1,16.9,10.7,16.9z"/>
</svg>
